<svg width="25" height="26" viewBox="0 0 25 26" fill="none" xmlns="http://www.w3.org/2000/svg">
<circle cx="12.3944" cy="12.8944" r="12.3944" fill="white"/>
<path d="M13.3526 5.31965C13.1566 5.74836 13.5975 5.96272 13.8523 6.21042C15.7975 8.10629 17.6938 10.045 19.5949 11.979C19.7811 12.1696 19.977 12.2458 20.2514 12.2029C20.8933 12.1076 21.4862 12.7364 21.3931 13.2842C21.3049 13.813 20.7463 14.256 20.2563 14.1512C19.977 14.094 19.8056 14.1702 19.6341 14.3417C17.6497 16.2757 15.6799 18.224 13.6612 20.1246C13.4309 20.3389 13.2889 20.539 13.3428 20.8534C13.4113 21.2631 13.1566 21.5536 12.8822 21.7823C12.5343 22.0729 11.6719 21.8347 11.4759 21.4155C11.3828 21.2107 11.231 21.0154 11.3632 20.7391C11.4318 20.6009 11.275 20.3866 11.1281 20.2532C8.99665 18.2668 6.87505 16.2519 4.78775 14.2321C4.60646 13.994 4.42026 14.013 4.18018 14.0749C3.80289 14.1702 3.43541 14.1512 3.15122 13.8511C2.91113 13.5986 2.70534 13.3033 2.84744 12.9555C3.00423 12.5744 3.28842 12.2124 3.7441 12.241C4.24877 12.2743 4.54766 12.0457 4.86614 11.7361C5.8265 10.7929 6.80155 9.87355 7.77171 8.9399C8.86926 7.8967 9.93251 6.81539 11.0791 5.82934C11.2652 5.6912 11.3142 5.51495 11.3044 5.29583C11.231 3.8382 13.4554 3.66672 13.3526 5.31965ZM8.68797 11.7456C8.83986 11.9552 8.95745 12.241 9.01135 12.5506C9.46703 12.784 9.99621 13.0127 10.4911 13.1937C10.7998 13.2985 11.0693 13.4843 11.3975 13.5414C11.4857 13.5557 11.5739 13.6462 11.6523 13.5557C11.7699 13.4223 11.9414 13.3557 12.2991 13.3223C12.2991 13.3223 12.7793 13.3366 12.9606 13.5653C13.0145 13.6367 13.1223 13.6319 13.1909 13.5891C13.3575 13.489 13.5583 13.4747 13.72 13.3795C14.3325 13.0365 15.0381 12.9031 15.6309 12.522C15.6064 12.1648 15.9004 11.8933 15.92 11.5503C15.4546 10.4928 14.7392 9.52581 14.1953 8.4969C13.8033 7.86336 13.4016 7.22981 13.0684 6.56769C12.8626 6.15802 12.5931 6.02465 12.1472 6.03894C11.8287 6.0437 11.6964 6.25329 11.618 6.49623C10.7214 7.96815 9.91291 9.48294 9.02605 10.9596C8.89866 11.193 8.67327 11.3836 8.68797 11.7456ZM12.1325 17.5047C12.1227 16.7854 12.1325 16.047 12.1276 15.323C12.1276 15.1467 12.1374 14.9752 11.9218 14.8847C11.6033 14.7514 11.4367 14.5084 11.4465 14.1655C11.4514 14.0035 11.3926 13.8796 11.2065 13.8415C10.9909 13.7987 10.8194 13.6558 10.6038 13.5891C10.1579 13.4462 9.73652 13.2223 9.29554 13.0556C9.07505 12.9746 8.85456 12.8555 8.59977 13.0413C8.17839 13.3509 7.80111 13.2794 7.42383 12.9031C7.30133 12.7793 7.16414 12.5744 6.94365 12.6697C6.57616 12.8317 6.16948 12.7364 5.8118 12.8412C5.43942 12.9508 4.90044 12.8412 4.78775 13.4366C4.75345 13.6177 4.72895 13.7224 4.87104 13.8558C7.03674 15.9375 9.19264 18.0286 11.4024 20.0627C11.4857 20.1341 11.5347 20.2294 11.667 20.196C11.9169 20.1341 12.1276 19.8959 12.1276 19.6387C12.1325 18.9289 12.1325 18.2192 12.1325 17.5047ZM12.5098 17.4618C12.5 18.1811 12.5098 18.9147 12.5049 19.6435C12.5049 19.8388 12.4951 20.0293 12.7793 20.0388C12.9312 20.0579 12.9753 20.3151 13.1566 20.1484C15.2194 18.1668 17.2528 16.1566 19.3156 14.1702C19.4822 14.0083 19.5704 13.8511 19.4822 13.6415C19.345 13.3128 19.247 12.9365 18.7374 12.9889C18.6492 12.9984 18.5463 12.9508 18.463 12.9127C18.1347 12.765 17.7868 12.8126 17.4439 12.7888C17.3459 12.784 17.2528 12.8317 17.1646 12.9269C16.8216 13.2937 16.4639 13.3271 16.0082 13.0651C15.871 12.9889 15.7338 12.9508 15.5721 12.9889C14.847 13.1889 14.2002 13.5557 13.4995 13.8082C13.2497 13.9178 13.1566 14.0273 13.1468 14.2655C13.137 14.5275 12.9949 14.7371 12.7597 14.8323C12.5294 14.9276 12.5 15.0753 12.5049 15.2753C12.5147 16.0089 12.5098 16.7377 12.5098 17.4618ZM5.09643 12.6554C5.64031 12.6745 6.14008 12.4125 6.67416 12.4125C6.95835 12.4077 7.14944 12.3172 7.30133 12.0552C7.43363 11.8266 7.60512 11.5455 7.9579 11.5932C8.25679 11.6313 8.40868 11.436 8.49198 11.2454C9.29554 9.66872 10.202 8.14916 11.1085 6.62008C11.1673 6.52481 11.3191 6.40096 11.2016 6.31046C11.0595 6.20566 11.0154 6.45812 10.8782 6.47242C10.1971 7.14883 9.48663 7.81572 8.79086 8.48261C7.49732 9.71159 6.15968 10.9025 4.88574 12.1553C4.75835 12.2791 4.64075 12.3934 4.71915 12.5602C4.78775 12.7174 4.95924 12.6364 5.09643 12.6554ZM13.4995 6.55339C14.1708 7.86335 14.9401 9.05899 15.6652 10.3213C15.871 10.7072 16.0817 11.0882 16.3267 11.4503C16.3904 11.5408 16.4492 11.5932 16.5521 11.5836C17.0029 11.5503 17.2087 11.8456 17.3704 12.1791C17.4341 12.3125 17.5076 12.3887 17.6644 12.4173C18.1788 12.503 18.6884 12.603 19.198 12.7078C19.4332 12.7555 19.5606 12.6364 19.5067 12.4125C17.7085 10.4737 15.6946 8.66362 13.8719 6.72488C13.7984 6.63914 13.7249 6.47242 13.4995 6.55339ZM3.20512 13.1604C3.19532 14.0416 4.46436 14.0702 4.52316 13.2128C4.62115 12.3791 3.16102 12.322 3.20512 13.1604ZM20.9962 13.1889C21.0648 12.3601 19.6782 12.3839 19.6929 13.1604C19.7811 13.9844 20.9276 14.1035 20.9962 13.1889ZM12.9704 20.9391C12.8871 20.0246 11.7797 20.0674 11.6768 20.9296C11.7356 21.8109 12.9459 21.868 12.9704 20.9391ZM12.9606 5.12435C12.9606 4.84806 12.6568 4.48604 12.4118 4.47175C12.0639 4.45269 11.6866 4.79567 11.6866 5.12911C11.7895 5.96749 12.8969 5.99607 12.9606 5.12435ZM12.7842 14.1512C12.7401 13.4176 11.8336 13.5271 11.7601 14.1655C11.7601 14.3608 12.108 14.6704 12.3187 14.6609C12.5637 14.6609 12.7842 14.4179 12.7842 14.1512ZM8.55567 12.3934C8.62917 11.7361 7.55612 11.7885 7.60022 12.403C7.60022 12.7412 7.72271 12.8507 8.09019 12.846C8.46258 12.846 8.56057 12.7507 8.55567 12.3934ZM16.5227 12.8412C16.8755 12.8412 17.0029 12.7174 16.998 12.3887C16.9931 12.079 16.851 11.9504 16.5031 11.9504C16.1797 11.9504 16.0719 12.06 16.067 12.3839C16.0621 12.7412 16.165 12.8412 16.5227 12.8412Z" fill="black"/>
<path d="M12.4544 22.1952C12.3515 22.1952 12.2388 22.1809 12.1261 22.1571C11.793 22.0856 11.3814 21.8808 11.2246 21.5331L11.1805 21.4426C11.0874 21.2568 10.9453 20.9805 11.1119 20.628C11.0972 20.6518 11.0531 20.5566 10.9404 20.4565C8.7747 18.4368 6.6433 16.4123 4.59519 14.4307C4.4972 14.3069 4.4727 14.2878 4.25711 14.345C3.71323 14.4831 3.27225 14.3783 2.95377 14.0449C2.79207 13.8734 2.36579 13.4256 2.59608 12.8588C2.84107 12.2633 3.26245 11.9442 3.77203 11.9727C4.14441 12.0013 4.3698 11.8489 4.67359 11.5488C5.36936 10.8676 6.07002 10.196 6.77069 9.52431L7.57915 8.75262C7.88784 8.45729 8.19652 8.15719 8.50521 7.86185C9.27447 7.11875 10.0682 6.34706 10.8963 5.63254C10.9894 5.56108 11.0384 5.48963 11.0237 5.32291C10.9943 4.77987 11.2344 4.32258 11.6754 4.06535C12.1016 3.82241 12.6308 3.81765 13.0326 4.05582C13.2776 4.20349 13.6794 4.56551 13.6304 5.35149L13.6059 5.44676C13.5471 5.58014 13.5863 5.64683 13.8607 5.87071C13.9244 5.92311 13.993 5.98027 14.0469 6.03267C16.0166 7.95236 17.9373 9.91015 19.7943 11.806C19.9266 11.9394 20.0295 11.9775 20.2059 11.9489C20.593 11.8918 20.9947 12.0299 21.2936 12.3252C21.5876 12.6158 21.7297 12.9969 21.6709 13.3494C21.6121 13.7019 21.3867 14.0401 21.0682 14.2497C20.7938 14.4307 20.4852 14.4974 20.1961 14.4402C20.0393 14.4069 19.9609 14.4307 19.8335 14.5546L18.5644 15.7931C17.0308 17.2936 15.4433 18.8417 13.8558 20.3374C13.6451 20.5327 13.5912 20.6471 13.6206 20.8281C13.7137 21.3902 13.3511 21.7712 13.0669 22.0094C12.915 22.1285 12.6994 22.1952 12.4544 22.1952ZM11.9644 20.9376C11.9938 21.2187 12.2045 21.3282 12.3662 21.3425C12.5622 21.3378 12.6798 21.1949 12.6945 20.9519C12.6602 20.6566 12.4936 20.547 12.3466 20.547H12.3417C12.18 20.547 12.0085 20.6661 11.9644 20.9376ZM7.04508 12.9254C6.80989 13.0398 6.5502 13.0541 6.32481 13.0636C6.16802 13.0683 6.02592 13.0779 5.89853 13.1112C5.79564 13.1398 5.68294 13.1589 5.56535 13.1731C5.23216 13.2208 5.11947 13.2494 5.07047 13.4923C5.06067 13.5542 5.04597 13.6209 5.05087 13.64L6.09452 14.6451C7.88784 16.3694 9.74485 18.1558 11.6068 19.8706C11.6215 19.8849 11.6411 19.8992 11.6607 19.923C11.7685 19.8754 11.8616 19.7563 11.8616 19.6467C11.8616 19.1323 11.8616 18.6226 11.8616 18.1081V17.5127C11.8567 17.103 11.8567 16.6886 11.8567 16.2742C11.8567 15.9598 11.8567 15.6454 11.8567 15.331C11.8567 15.2548 11.8567 15.1738 11.8469 15.1548C11.3961 14.969 11.1658 14.6212 11.1756 14.1687C11.1756 14.1258 11.1707 14.1116 11.1707 14.1116C10.9992 14.0925 10.8669 14.021 10.7493 13.9591C10.6807 13.921 10.6072 13.8829 10.5288 13.8591C10.2544 13.7733 9.98984 13.6543 9.73505 13.5447C9.55866 13.4685 9.38717 13.3875 9.20588 13.3208L9.13728 13.2922C8.93149 13.2113 8.87759 13.2017 8.7796 13.2684C8.41701 13.5352 7.85354 13.7209 7.23127 13.1017L7.16267 13.0302C7.12837 12.9969 7.06958 12.935 7.04508 12.9254ZM12.7974 19.7658L12.8268 19.7706C12.9248 19.7849 12.9983 19.8277 13.0522 19.8706C14.1252 18.8369 15.1934 17.7985 16.2567 16.7601C17.2121 15.8312 18.1627 14.8975 19.123 13.9734C19.2651 13.8353 19.2455 13.7924 19.2259 13.7448L19.1867 13.6447C19.0495 13.3113 19.0005 13.2351 18.7751 13.2637C18.6085 13.2827 18.4517 13.2113 18.3489 13.1636C18.1627 13.0779 17.9471 13.0779 17.7217 13.0779C17.6286 13.0779 17.5306 13.0779 17.4375 13.0683C17.4375 13.0683 17.4179 13.0779 17.3885 13.116C16.9622 13.5733 16.4575 13.64 15.8794 13.3113C15.7765 13.2541 15.7177 13.2494 15.6589 13.2637C15.2522 13.378 14.8651 13.5447 14.4584 13.7257C14.1791 13.8496 13.8999 13.9734 13.6157 14.0782C13.4491 14.1497 13.4491 14.183 13.4442 14.2878C13.4295 14.6546 13.2188 14.9595 12.8856 15.0976C12.8121 15.1262 12.7974 15.1309 12.8023 15.2881C12.8072 15.8169 12.8023 16.3504 12.8023 16.8791V17.4698C12.7974 17.8699 12.7974 18.2701 12.7974 18.675C12.7974 18.9989 12.7974 19.3228 12.7974 19.6467C12.7925 19.6896 12.7925 19.7325 12.7974 19.7658ZM12.3221 13.921C12.2045 13.921 12.0673 14.0163 12.0477 14.1973C12.0673 14.2259 12.2486 14.3783 12.327 14.3926C12.3956 14.3926 12.5034 14.2878 12.5132 14.1592C12.5034 14.0496 12.4642 13.9258 12.3319 13.921C12.3221 13.921 12.3221 13.921 12.3221 13.921ZM19.7992 13.8972C19.7992 13.9067 19.7943 13.9115 19.7943 13.921C19.8041 13.9162 19.809 13.9162 19.8188 13.9115C19.8139 13.9067 19.8041 13.902 19.7992 13.8972ZM3.85043 12.8349C3.76713 12.8349 3.68383 12.854 3.62014 12.8873C3.52214 12.9397 3.48294 13.0207 3.48784 13.1446V13.1636C3.48294 13.4542 3.67403 13.559 3.85043 13.5685C4.03172 13.5638 4.22281 13.4828 4.24241 13.2017C4.25711 13.0636 4.21791 12.9731 4.11991 12.9112C4.04642 12.8588 3.94842 12.8349 3.85043 12.8349ZM20.3676 12.8492C20.2843 12.8492 20.1961 12.8683 20.1275 12.9064C20.0246 12.9636 19.9756 13.0445 19.9805 13.1589C20.0099 13.4161 20.1912 13.559 20.397 13.559C20.5832 13.559 20.7007 13.4161 20.7203 13.1731C20.7301 13.0541 20.6958 12.9683 20.6077 12.9159C20.5391 12.8683 20.4558 12.8492 20.3676 12.8492ZM12.278 13.0541C12.4054 13.0541 12.8513 13.0826 13.1159 13.3256C13.209 13.2779 13.3021 13.2541 13.3854 13.2255C13.4589 13.2017 13.5324 13.1827 13.5765 13.1541C13.8803 12.9826 14.1987 12.8635 14.5025 12.7492C14.8063 12.6349 15.0905 12.5253 15.3551 12.3776C15.3796 12.1919 15.4531 12.0347 15.5217 11.8918C15.5707 11.787 15.6148 11.6917 15.6344 11.6012C15.3649 11.0058 15.0072 10.4246 14.6642 9.86252C14.4192 9.46238 14.1693 9.05272 13.944 8.63354L13.797 8.40013C13.4638 7.85232 13.111 7.28547 12.817 6.69956C12.6651 6.39946 12.5181 6.31848 12.1604 6.32324C12.0526 6.32801 11.9693 6.34706 11.891 6.59L11.8665 6.64716C11.3961 7.42361 10.9355 8.22864 10.4945 9.00509C10.0927 9.71009 9.69096 10.4151 9.27447 11.1106C9.24018 11.1677 9.20098 11.2296 9.15688 11.2916C9.06378 11.4202 8.99029 11.525 8.97559 11.6679C9.10788 11.8727 9.20588 12.1156 9.26468 12.3729C9.66156 12.5729 10.127 12.773 10.5925 12.9445C10.715 12.9874 10.8375 13.0445 10.96 13.1017C11.1266 13.1779 11.2834 13.2541 11.45 13.2827C11.4794 13.2875 11.5088 13.297 11.5333 13.3018C11.7195 13.1446 11.9693 13.0874 12.278 13.0541ZM7.90744 12.5587C7.90744 12.5587 7.94664 12.5729 8.09363 12.5777C8.21122 12.5777 8.26022 12.5634 8.27492 12.5587C8.27002 12.5539 8.27982 12.511 8.27982 12.4015V12.3681C8.28962 12.2633 8.25042 12.2395 8.23082 12.23C8.16223 12.1871 8.04463 12.1919 7.96624 12.2347C7.90744 12.2681 7.88294 12.3157 7.88784 12.3872C7.88784 12.5205 7.90254 12.5539 7.90744 12.5587ZM16.3693 12.5634C16.3791 12.5634 16.4232 12.5729 16.5261 12.5729C16.6731 12.5825 16.6976 12.5491 16.7025 12.5491C16.7025 12.5491 16.7221 12.5158 16.7221 12.4015C16.7172 12.2586 16.7025 12.2252 16.5065 12.2347C16.4085 12.2347 16.3742 12.249 16.3644 12.249C16.3644 12.249 16.3497 12.2871 16.3497 12.3967C16.3497 12.511 16.3644 12.5539 16.3693 12.5634ZM17.2807 12.5253C17.2807 12.5301 17.2807 12.5396 17.2807 12.5444C17.2856 12.5444 17.2905 12.5396 17.3003 12.5396C17.2905 12.5348 17.2856 12.5301 17.2807 12.5253ZM19.8041 12.4491C19.8041 12.4539 19.8041 12.4586 19.8041 12.4586C19.809 12.4586 19.8139 12.4539 19.8139 12.4539C19.809 12.4491 19.809 12.4491 19.8041 12.4491ZM4.3796 12.4205C4.3894 12.4253 4.3992 12.43 4.409 12.4396C4.409 12.43 4.409 12.4205 4.409 12.411C4.4041 12.411 4.3894 12.4157 4.3796 12.4205ZM16.6241 11.3106C17.266 11.3106 17.5208 11.8346 17.6335 12.0633C17.6678 12.1395 17.6776 12.1395 17.7217 12.1442C18.1921 12.2252 18.6624 12.3157 19.1328 12.411C18.2558 11.4726 17.3101 10.5485 16.3987 9.65292C15.7618 9.02891 15.1101 8.3906 14.478 7.74276C14.6985 8.12384 14.919 8.49539 15.1395 8.86695C15.3992 9.30519 15.6638 9.74343 15.9186 10.1912C16.1391 10.6009 16.335 10.9581 16.5702 11.3011C16.5751 11.3059 16.5751 11.3106 16.5751 11.3106C16.5849 11.3106 16.6045 11.3106 16.6241 11.3106ZM5.11947 12.3824C5.35956 12.3919 5.59964 12.33 5.85443 12.2681C6.11412 12.2062 6.38361 12.1395 6.6776 12.1395C6.87849 12.1395 6.96178 12.0871 7.05978 11.9203C7.18717 11.7012 7.44686 11.2487 8.00053 11.3201C8.05933 11.3249 8.14753 11.3392 8.23572 11.1344C8.88739 9.85775 9.60766 8.60972 10.3279 7.39503C10.0927 7.61891 9.85755 7.8428 9.62236 8.07144L8.99029 8.67641C8.47581 9.16705 7.95644 9.64816 7.43216 10.1293C6.658 10.8486 5.85443 11.5917 5.08517 12.3443C5.07537 12.3538 5.06557 12.3634 5.05577 12.3729C5.07537 12.3824 5.09497 12.3824 5.11947 12.3824ZM16.1881 11.7155C16.1881 11.7203 16.1832 11.7298 16.1832 11.7346C16.1881 11.7346 16.193 11.7298 16.2028 11.7298C16.193 11.7203 16.193 11.7203 16.1881 11.7155ZM12.8219 5.90882C12.9983 6.00409 13.1453 6.14699 13.2629 6.35182L13.405 6.29943C13.4344 6.2899 13.4638 6.28037 13.4932 6.27561C13.3364 6.14699 13.1159 5.96122 13.0424 5.70399C12.9787 5.78497 12.9052 5.85642 12.8219 5.90882ZM11.2687 6.0422C11.3128 6.06125 11.352 6.0803 11.3765 6.09936C11.4059 6.11841 11.4353 6.14699 11.4598 6.18034C11.5431 6.03267 11.6558 5.92311 11.793 5.85642C11.7048 5.78973 11.6264 5.70875 11.5627 5.60396C11.5186 5.7802 11.4206 5.92311 11.2687 6.0422ZM12.3907 4.74653C12.3025 4.74653 12.1996 4.79416 12.1163 4.87514C12.033 4.95612 11.9791 5.05139 11.9791 5.13237C12.0085 5.38007 12.1947 5.4944 12.3564 5.49916C12.4985 5.4944 12.6602 5.39436 12.6847 5.12284C12.6798 4.97517 12.4887 4.76558 12.4005 4.75129C12.3956 4.74653 12.3907 4.74653 12.3907 4.74653Z" fill="black"/>
</svg>
