<svg width="114" height="70" viewBox="0 0 114 70" fill="none" xmlns="http://www.w3.org/2000/svg">
    <defs>
        <linearGradient id="paint0_linear" x1="44.1817" y1="34.8998" x2="114.024" y2="34.8998" gradientUnits="userSpaceOnUse">
            <stop stop-color="#0779E4"/>
            <stop offset="0.9341" stop-color="#EA2C62"/>
        </linearGradient>
        <linearGradient id="paint1_linear" x1="-0.00545291" y1="34.906" x2="69.8192" y2="34.906" gradientUnits="userSpaceOnUse">
            <stop stop-color="#0779E4"/>
            <stop offset="0.9341" stop-color="#1DD3BD"/>
        </linearGradient>
    </defs>
    <path d="M109.724 18.9781C110.18 18.2635 110.44 17.3864 110.44 16.5094C110.44 16.282 110.407 16.0222 110.407 15.8273C110.082 13.5535 108.129 11.8319 105.819 11.8319H105.786C103.931 11.8319 102.304 12.9363 101.556 14.528C92.8014 13.4885 86.7158 9.46063 83.3639 6.53717C83.6242 5.95248 83.7869 5.30282 83.7869 4.65317C83.7869 2.7042 82.5503 0.91764 80.6953 0.267983C79.6865 -0.0893278 78.5149 -0.0893278 77.5386 0.267983C75.6836 0.91764 74.447 2.7042 74.447 4.65317C74.447 5.30282 74.5772 5.95248 74.8701 6.53717C71.4855 9.46063 65.3999 13.521 56.6132 14.528C55.8647 12.9363 54.2701 11.8644 52.4151 11.8319C52.4151 11.8319 52.4151 11.8319 52.3826 11.8319C50.2022 11.8319 48.2821 13.3586 47.8265 15.5024C47.7614 15.7948 47.7289 16.1196 47.7289 16.4444C47.7289 17.354 47.9892 18.231 48.4774 18.9781C46.9479 21.4468 45.2556 24.9549 44.5396 29.0803C43.0101 37.9481 45.7112 50.8113 67.4502 61.9204C69.598 63.0248 71.9412 64.0968 74.4144 65.1362V65.1687C74.4144 67.7348 76.4972 69.8137 79.0681 69.8137C81.6391 69.8137 83.7218 67.7348 83.7218 65.1687V65.1362C86.065 64.1617 88.343 63.1223 90.4258 62.0503C103.248 55.5538 110.928 47.7579 113.239 38.8576C115.484 30.477 112.295 23.1359 109.724 18.9781ZM81.932 49.2521C81.216 48.5375 80.2072 48.1152 79.1007 48.1152C77.9942 48.1152 77.0179 48.5375 76.2694 49.2521C75.1304 48.6999 73.8287 47.9853 72.5269 47.0108C68.0685 43.6651 65.823 39.2474 65.823 33.8228C65.823 32.491 66.0183 31.2241 66.3762 30.0223C66.9946 30.0223 67.5803 29.8599 68.101 29.6V30.0223V29.6C69.4679 28.9503 70.3791 27.5536 70.3791 25.9619C70.3791 25.3123 70.2164 24.7276 69.956 24.1754C72.3317 21.934 75.5209 20.5698 79.0681 20.5698C82.5828 20.5698 85.8046 21.9665 88.1803 24.2078C87.9199 24.76 87.7572 25.3447 87.7572 25.9944C87.7572 28.2032 89.5471 30.0223 91.7601 30.0547C92.118 31.2566 92.3133 32.5234 92.3133 33.8552C92.3133 39.2799 90.0678 43.6975 85.6094 47.0433C84.3727 47.9853 83.0384 48.7324 81.932 49.2521ZM79.1007 9.26573C79.1332 9.26573 79.1658 9.26573 79.1983 9.26573C79.9143 12.1892 81.0858 15.0152 82.6479 17.5813C81.5089 17.3215 80.3048 17.1915 79.1007 17.1915C77.8966 17.1915 76.6925 17.3215 75.5535 17.5813C77.1155 15.0152 78.2871 12.1892 79.0031 9.26573C79.0356 9.26573 79.0681 9.26573 79.1007 9.26573ZM68.101 21.3169C68.0685 21.3493 68.036 21.3818 68.036 21.3818C68.0034 21.4143 67.9383 21.4468 67.9058 21.4793C67.678 21.6742 67.4827 21.8366 67.2875 21.999C66.9946 21.934 66.7017 21.9016 66.3762 21.9016C65.9532 21.9016 65.5301 21.9665 65.1396 22.0965C63.2846 20.3424 61.2344 18.8157 59.0214 17.5489C66.0833 16.347 71.453 13.3586 75.0328 10.6625C73.6334 14.7553 71.2577 18.4259 68.101 21.3169ZM93.1269 22.1289C92.7364 21.999 92.2808 21.934 91.8577 21.934C91.5323 21.934 91.2394 21.9665 90.9465 22.0315C90.7512 21.8691 90.556 21.7067 90.3932 21.5442L89.9376 21.1545C86.8786 18.2635 84.5354 14.6579 83.2012 10.7275C86.8135 13.456 92.2482 16.4444 99.4077 17.6463C97.1297 18.8482 95.0144 20.3749 93.1269 22.1289ZM69.0123 58.932C53.2613 50.8763 45.9716 40.7741 47.8916 29.6974C48.5099 26.1893 49.9093 23.1684 51.211 21.0245C51.569 21.122 51.9595 21.1545 52.3175 21.1545H52.3501C53.6518 21.1545 54.8559 20.6347 55.702 19.7252C58.2404 20.9271 60.5184 22.5187 62.6012 24.4677C62.4059 24.9549 62.3083 25.4422 62.3083 25.9944C62.3083 27.0014 62.6663 27.9109 63.2846 28.6255C62.7314 30.2821 62.4385 32.0362 62.4385 33.8552C62.4385 40.3518 65.2698 45.8739 70.6069 49.8368C72.169 51.0062 73.731 51.8507 75.0653 52.4679C75.1629 53.9621 76.1067 55.2614 77.4084 55.8461V60.881C76.7576 61.1408 76.1718 61.5306 75.7162 62.0179C73.3405 61.0109 71.095 59.9714 69.0123 58.932ZM109.984 38.0455C107.934 45.9389 100.84 53.0201 88.9288 59.0619C86.9111 60.0689 84.7632 61.0759 82.4852 62.0179C82.0296 61.5306 81.4438 61.1408 80.7929 60.881V55.8461C82.0947 55.229 83.0384 53.9621 83.1361 52.4679C84.4703 51.8507 86.0324 50.9737 87.5945 49.8368C92.9316 45.8739 95.7629 40.3518 95.7629 33.8552C95.7629 32.0362 95.47 30.2821 94.9168 28.6255C95.5351 27.9109 95.8931 27.0014 95.8931 25.9944C95.8931 25.4747 95.7954 24.9549 95.6002 24.5002C97.6829 22.5837 99.9935 21.0245 102.532 19.8551C103.378 20.6672 104.517 21.1545 105.754 21.1545H105.786C106.177 21.1545 106.567 21.0895 106.958 20.992C109.203 24.6951 111.839 30.9643 109.984 38.0455Z" fill="url(#paint0_linear)"/>
    <path d="M64.9392 30.0245C64.2507 30.0245 63.5897 30.176 62.9976 30.4376L39.3683 6.81748C39.63 6.22525 39.7814 5.56417 39.7814 4.87553C39.7814 2.18986 37.592 0 34.9069 0C32.2217 0 30.0323 2.18986 30.0323 4.87553C30.0323 5.56417 30.1838 6.22525 30.4454 6.81748L6.81613 30.4376C6.22403 30.176 5.56307 30.0245 4.87457 30.0245C2.18943 30.0245 0 32.2143 0 34.9C0 37.5857 2.18943 39.7755 4.87457 39.7755C5.56307 39.7755 6.22403 39.624 6.81613 39.3623L30.4454 62.9963C30.1838 63.5885 30.0323 64.2496 30.0323 64.9382C30.0323 67.6239 32.2217 69.8137 34.9069 69.8137C37.592 69.8137 39.7814 67.6239 39.7814 64.9382C39.7814 64.2496 39.63 63.5885 39.3683 62.9963L62.9976 39.3623C63.5897 39.624 64.2507 39.7755 64.9392 39.7755C67.6243 39.7755 69.8137 37.5857 69.8137 34.9C69.8137 32.2143 67.6381 30.0245 64.9392 30.0245ZM60.3951 33.1646L51.2381 35.3958C50.4669 34.3215 49.2139 33.6191 47.7956 33.6191C46.7628 33.6191 45.8265 33.991 45.0829 34.597L39.1343 31.8011C39.1343 31.7598 39.1343 31.7185 39.1343 31.6634C39.1343 29.9556 38.129 28.4957 36.6694 27.8208V9.39297C36.7245 9.36543 36.7796 9.35165 36.8347 9.32411L60.4639 32.958C60.4502 33.0269 60.4226 33.0958 60.3951 33.1646ZM34.9069 60.0765C34.7967 60.0765 34.6866 60.0902 34.5626 60.0902L25.2817 40.5606C25.8875 39.8306 26.2456 38.8941 26.2456 37.8749C26.2456 37.8611 26.2456 37.8611 26.2456 37.8473L32.2768 35.0102C32.9928 35.5749 33.9154 35.9192 34.8931 35.9192C35.8845 35.9192 36.8071 35.5748 37.5232 34.9964L43.5544 37.8336C43.5544 37.8473 43.5544 37.8611 43.5544 37.8749C43.5544 38.8941 43.9124 39.8306 44.5183 40.5606L35.2374 60.0902C35.1272 60.0765 35.017 60.0765 34.9069 60.0765ZM33.1305 9.39297V27.8346C31.6847 28.5095 30.6657 29.9694 30.6657 31.6772C30.6657 31.7323 30.6657 31.7736 30.6795 31.8287L24.7309 34.6245C23.9873 34.0048 23.0509 33.6329 22.0044 33.6329C20.5861 33.6329 19.333 34.3353 18.5619 35.4096L9.41866 33.1646C9.39112 33.0958 9.36358 33.0269 9.33604 32.9443L32.9653 9.31034C33.0204 9.35166 33.0755 9.3792 33.1305 9.39297ZM9.34981 36.8282L17.901 38.9216C18.3691 40.7534 20.0215 42.1169 22.0044 42.1169C22.032 42.1169 22.0457 42.1169 22.0733 42.1169L28.8619 56.3992L9.33604 36.8557C9.33604 36.8419 9.34981 36.8282 9.34981 36.8282ZM47.7267 42.1169C47.7542 42.1169 47.7818 42.1169 47.8093 42.1169C49.7922 42.1169 51.4584 40.7534 51.9128 38.9078L60.4639 36.8144C60.4639 36.8282 60.4777 36.8419 60.4777 36.8557L40.9381 56.3992L47.7267 42.1169Z" fill="url(#paint1_linear)"/>
</svg>

