<svg width="120" height="35" viewBox="0 0 120 35" fill="none" xmlns="http://www.w3.org/2000/svg">
    <g clip-path="url(#clip0)">
        <path d="M0 0.923507C0 0.725653 0.132268 0.59375 0.330669 0.59375H11.4081C14.7478 0.59375 17.6247 1.28624 20.0055 2.67122C22.3863 4.0562 24.205 6.00176 25.4615 8.50791C26.7181 11.0141 27.3463 13.9489 27.3463 17.3124C27.3463 20.7749 26.7181 23.7756 25.4615 26.2818C24.205 28.7879 22.3863 30.7335 19.9724 32.0525C17.5916 33.3716 14.7478 34.0641 11.4412 34.0641H0.330669C0.132268 34.0641 0 33.9322 0 33.7343V0.923507ZM10.9451 30.3378C13.1276 30.3378 14.9793 30.041 16.5665 29.4145C18.1207 28.7879 19.3111 27.9306 20.0716 26.8094C20.8983 25.5893 21.5266 24.2703 21.8903 22.7864C22.254 21.3354 22.4524 19.4888 22.4524 17.3124C22.4524 15.136 22.254 13.3553 21.8572 11.9044C21.4604 10.4535 20.8652 9.13445 20.0385 7.94732C19.2119 6.79318 18.0215 5.90283 16.4673 5.2763C14.8801 4.64976 13.0284 4.32 10.9451 4.32H4.62937C4.43097 4.32 4.2987 4.4519 4.2987 4.64976V30.008C4.2987 30.2059 4.43097 30.3378 4.62937 30.3378H10.9451Z" fill="white"/>
        <path d="M33.0005 0.59375H56.1142C56.3126 0.59375 56.4449 0.725653 56.4449 0.923507V4.12215C56.4449 4.32 56.3126 4.4519 56.1142 4.4519H37.2992C37.1008 4.4519 36.9685 4.58381 36.9685 4.78166V11.9374C36.9685 12.1352 37.1008 12.2671 37.2992 12.2671H54.3286C54.527 12.2671 54.6593 12.399 54.6593 12.5969V15.7955C54.6593 15.9934 54.527 16.1253 54.3286 16.1253H36.9685H33.0005C32.8021 16.1253 32.6698 15.9934 32.6698 15.7955V0.923507C32.6698 0.725653 32.8021 0.59375 33.0005 0.59375Z" fill="white"/>
        <path d="M32.6698 19.4557C32.6698 19.2579 32.8021 19.126 33.0005 19.126H36.9685H54.3286C54.527 19.126 54.6593 19.2579 54.6593 19.4557V22.6544C54.6593 22.8522 54.527 22.9841 54.3286 22.9841H37.2992C37.1008 22.9841 36.9685 23.116 36.9685 23.3139V29.876C36.9685 30.0739 37.1008 30.2058 37.2992 30.2058H56.1142C56.3126 30.2058 56.4449 30.3377 56.4449 30.5356V33.7342C56.4449 33.9321 56.3126 34.064 56.1142 34.064H33.0005C32.8021 34.064 32.6698 33.9321 32.6698 33.7342V19.4557Z" fill="white"/>
        <path d="M65.141 31.6568C62.8925 29.6783 61.8013 26.7764 61.8013 23.0172V0.923507C61.8013 0.725653 61.9335 0.59375 62.1319 0.59375H65.8024C66.0008 0.59375 66.133 0.725653 66.133 0.923507V23.0172C66.133 24.699 66.5298 26.1499 67.3234 27.337C68.1171 28.5241 69.1752 29.3815 70.4979 29.9751C71.8205 30.5357 73.2755 30.8324 74.8958 30.8324C76.483 30.8324 77.9379 30.5357 79.2937 29.9751C80.6163 29.4145 81.7076 28.5241 82.5012 27.337C83.2948 26.1499 83.6916 24.7319 83.6916 23.0172V0.923507C83.6916 0.725653 83.8238 0.59375 84.0222 0.59375H87.7257C87.9241 0.59375 88.0564 0.725653 88.0564 0.923507V23.0172C88.0564 26.7764 86.9321 29.6453 84.6836 31.6568C82.435 33.6683 79.1945 34.6576 74.9288 34.6576C70.6632 34.6576 67.3565 33.6683 65.141 31.6568Z" fill="white"/>
        <path d="M99.5311 33.3714C97.4479 32.514 95.7615 31.228 94.5049 29.5132C93.3145 27.8644 92.6863 25.8529 92.6201 23.4787C92.6201 23.3138 92.7524 23.1489 92.9177 23.1489L96.8527 22.7532C97.0511 22.7202 97.2164 22.8851 97.2164 23.083C97.2825 24.6658 97.6463 26.0508 98.4068 27.2049C99.2004 28.458 100.292 29.4143 101.647 30.0408C103.036 30.7004 104.59 31.0301 106.343 31.0301C109.087 31.0301 111.303 30.5355 112.989 29.5462C114.676 28.5569 115.502 26.9411 115.502 24.6658C115.502 23.5117 115.139 22.5883 114.444 21.9288C113.75 21.2693 112.857 20.7747 111.832 20.4449C110.774 20.1481 109.385 19.8184 107.599 19.5216C106.211 19.2578 105.219 19.0599 104.524 18.928C102.342 18.4004 100.49 17.8398 98.9359 17.1803C97.4148 16.5208 96.1252 15.5645 95.1001 14.3114C94.0751 13.0584 93.546 11.4426 93.546 9.43104C93.546 7.28762 94.1412 5.50694 95.2985 4.08898C96.4559 2.67103 97.9439 1.64878 99.7626 0.98927C101.581 0.329757 103.466 0 105.417 0C109.187 0 112.295 0.857368 114.676 2.53913C117.023 4.18791 118.379 6.79299 118.776 10.3544C118.809 10.5192 118.677 10.6841 118.512 10.7171L114.676 11.3766C114.477 11.4096 114.312 11.2777 114.279 11.0798C114.213 9.56294 113.816 8.27689 113.155 7.1887C112.427 6.00157 111.402 5.11123 110.079 4.48469C108.757 3.85815 107.17 3.56137 105.318 3.56137C104.16 3.56137 103.003 3.75923 101.879 4.18791C100.755 4.61659 99.8287 5.24313 99.0682 6.1005C98.3738 6.92489 98.01 7.91416 97.977 9.06831C97.9439 10.2554 98.473 11.4096 99.3988 12.168C100.292 12.8935 101.416 13.4541 102.772 13.8498C104.16 14.2455 105.748 14.6082 107.632 14.905C110.41 15.3337 112.626 15.8283 114.279 16.3889C115.965 16.9495 117.321 17.8398 118.379 19.0599C119.437 20.313 120 22.0278 120 24.2701C120 26.8092 119.371 28.8537 118.082 30.4036C116.792 31.9205 115.139 33.0086 113.122 33.6682C111.105 34.2947 108.889 34.6245 106.508 34.6245C103.962 34.6574 101.647 34.2287 99.5311 33.3714Z" fill="white"/>
    </g>
    <defs>
        <clipPath id="clip0">
            <rect width="119.999" height="34.6574" fill="white"/>
        </clipPath>
    </defs>
</svg>
