<svg width="185" height="28" viewBox="0 0 185 28" fill="none" xmlns="http://www.w3.org/2000/svg">
<path d="M110.439 13.5039H108.34V12H110.439V10.3008C110.439 9.48047 110.69 8.875 111.191 8.48438C111.693 8.09375 112.484 7.89844 113.564 7.89844C113.831 7.89844 114.095 7.91146 114.355 7.9375C114.622 7.95703 114.824 7.98307 114.961 8.01562L114.922 9.61719C114.538 9.53906 114.118 9.5 113.662 9.5C113.148 9.5 112.78 9.56185 112.559 9.68555C112.337 9.80273 112.227 10.0208 112.227 10.3398V12H115.059V13.5039H112.227V22H110.439V13.5039ZM123.418 20.4766V22H117.803V20.4766H119.785V13.5234H118.086V12H121.582V20.4766H123.418ZM119.629 7.83984H121.602V10.1641H119.629V7.83984ZM134.121 12.8789C134.355 13.1328 134.528 13.4355 134.639 13.7871C134.756 14.1322 134.827 14.4805 134.854 14.832C134.886 15.1771 134.902 15.5872 134.902 16.0625V22H133.037V16.1602C133.037 15.737 133.027 15.4082 133.008 15.1738C132.995 14.9329 132.943 14.6953 132.852 14.4609C132.767 14.2266 132.63 14.0182 132.441 13.8359C132.188 13.5885 131.921 13.4323 131.641 13.3672C131.361 13.2956 131.035 13.2598 130.664 13.2598C130.007 13.2598 129.408 13.4844 128.867 13.9336C128.327 14.3763 128.057 15.2259 128.057 16.4824V22H126.26V12H128.057V13.5332C128.584 12.3483 129.613 11.7559 131.143 11.7559C131.8 11.7559 132.37 11.847 132.852 12.0293C133.333 12.2116 133.757 12.4948 134.121 12.8789ZM141.055 22.2441C140.469 22.2441 139.919 22.1367 139.404 21.9219C138.896 21.707 138.483 21.3815 138.164 20.9453C137.852 20.5091 137.695 19.9818 137.695 19.3633C137.695 18.6862 137.858 18.1393 138.184 17.7227C138.509 17.306 138.913 16.9967 139.395 16.7949C139.883 16.5866 140.449 16.4206 141.094 16.2969L144.395 15.6621C144.395 15.1673 144.372 14.7897 144.326 14.5293C144.287 14.2624 144.196 14.0312 144.053 13.8359C143.916 13.6341 143.688 13.4746 143.369 13.3574C143.05 13.2402 142.673 13.1816 142.236 13.1816C141.37 13.1816 140.745 13.3509 140.361 13.6895C139.984 14.028 139.795 14.5781 139.795 15.3398L138.037 15.0957C138.057 14.4967 138.171 13.9792 138.379 13.543C138.587 13.1068 138.887 12.7585 139.277 12.498C139.642 12.2572 140.081 12.0749 140.596 11.9512C141.117 11.821 141.696 11.7559 142.334 11.7559C143.59 11.7559 144.538 12.0358 145.176 12.5957C145.814 13.1491 146.133 13.9694 146.133 15.0566V19.8418C146.133 20.0501 146.143 20.2031 146.162 20.3008C146.182 20.3984 146.23 20.4733 146.309 20.5254C146.393 20.5775 146.53 20.6035 146.719 20.6035C146.888 20.6035 147.08 20.5742 147.295 20.5156L147.334 22C146.995 22.0521 146.624 22.0781 146.221 22.0781C145.114 22.0781 144.512 21.5573 144.414 20.5156C143.854 21.668 142.734 22.2441 141.055 22.2441ZM141.338 20.7988C142.373 20.7988 143.141 20.5612 143.643 20.0859C144.144 19.6107 144.395 18.9889 144.395 18.2207V17L141.377 17.6641C140.967 17.7552 140.632 17.8594 140.371 17.9766C140.117 18.0872 139.915 18.2533 139.766 18.4746C139.616 18.6895 139.541 18.9792 139.541 19.3438C139.541 19.793 139.714 20.1478 140.059 20.4082C140.404 20.6686 140.83 20.7988 141.338 20.7988ZM157.52 12.8789C157.754 13.1328 157.926 13.4355 158.037 13.7871C158.154 14.1322 158.226 14.4805 158.252 14.832C158.285 15.1771 158.301 15.5872 158.301 16.0625V22H156.436V16.1602C156.436 15.737 156.426 15.4082 156.406 15.1738C156.393 14.9329 156.341 14.6953 156.25 14.4609C156.165 14.2266 156.029 14.0182 155.84 13.8359C155.586 13.5885 155.319 13.4323 155.039 13.3672C154.759 13.2956 154.434 13.2598 154.062 13.2598C153.405 13.2598 152.806 13.4844 152.266 13.9336C151.725 14.3763 151.455 15.2259 151.455 16.4824V22H149.658V12H151.455V13.5332C151.982 12.3483 153.011 11.7559 154.541 11.7559C155.199 11.7559 155.768 11.847 156.25 12.0293C156.732 12.2116 157.155 12.4948 157.52 12.8789ZM165.938 22.2441C164.922 22.2441 164.04 22.0358 163.291 21.6191C162.549 21.2025 161.976 20.6003 161.572 19.8125C161.175 19.0247 160.977 18.0872 160.977 17C160.977 15.9779 161.178 15.0697 161.582 14.2754C161.986 13.4811 162.562 12.8626 163.311 12.4199C164.059 11.9772 164.935 11.7559 165.938 11.7559C166.751 11.7559 167.464 11.9056 168.076 12.2051C168.688 12.5046 169.18 12.9115 169.551 13.4258C169.922 13.9401 170.176 14.526 170.312 15.1836L168.633 15.4961C168.451 14.7995 168.158 14.2428 167.754 13.8262C167.357 13.4095 166.751 13.2012 165.938 13.2012C165.156 13.2012 164.548 13.3607 164.111 13.6797C163.675 13.9922 163.372 14.4251 163.203 14.9785C163.04 15.5254 162.959 16.1992 162.959 17C162.959 17.8138 163.044 18.4974 163.213 19.0508C163.382 19.5977 163.685 20.0273 164.121 20.3398C164.557 20.6458 165.163 20.7988 165.938 20.7988C166.706 20.7988 167.301 20.6393 167.725 20.3203C168.154 20.0013 168.464 19.4805 168.652 18.7578L170.352 18.9434C170.234 19.6074 169.974 20.1901 169.57 20.6914C169.167 21.1862 168.652 21.5703 168.027 21.8438C167.402 22.1107 166.706 22.2441 165.938 22.2441ZM181.123 13.7383C181.39 14.168 181.598 14.679 181.748 15.2715C181.898 15.8639 181.973 16.4792 181.973 17.1172C181.973 17.306 181.969 17.446 181.963 17.5371H174.375C174.395 18.6374 174.639 19.4577 175.107 19.998C175.576 20.5319 176.279 20.7988 177.217 20.7988C178.063 20.7988 178.721 20.6165 179.189 20.252C179.658 19.8809 179.954 19.3177 180.078 18.5625L181.816 18.6992C181.595 19.8646 181.094 20.7467 180.312 21.3457C179.538 21.9447 178.512 22.2441 177.236 22.2441C175.7 22.2441 174.502 21.7559 173.643 20.7793C172.829 19.8678 172.422 18.6016 172.422 16.9805C172.422 16.2318 172.526 15.5417 172.734 14.9102C172.949 14.2721 173.265 13.722 173.682 13.2598C174.118 12.765 174.635 12.3906 175.234 12.1367C175.833 11.8828 176.494 11.7559 177.217 11.7559C178.024 11.7559 178.776 11.9284 179.473 12.2734C180.169 12.612 180.719 13.1003 181.123 13.7383ZM177.236 13.2207C176.689 13.2207 176.211 13.3184 175.801 13.5137C175.391 13.7025 175.085 13.9661 174.883 14.3047C174.714 14.5781 174.59 14.8711 174.512 15.1836C174.44 15.4961 174.401 15.7956 174.395 16.082H180.117C180.111 15.7956 180.059 15.4863 179.961 15.1543C179.863 14.8158 179.736 14.5326 179.58 14.3047C179.326 13.9271 179.007 13.6536 178.623 13.4844C178.245 13.3086 177.783 13.2207 177.236 13.2207Z" fill="white"/>
<path d="M0 0.793701H9.60769C10.7489 0.793701 11.814 0.945859 12.8139 1.26104C13.8138 1.57623 14.7267 2.01097 15.5527 2.57612C16.3787 3.14128 17.1178 3.81513 17.759 4.60852C18.4003 5.40192 18.9437 6.27139 19.3893 7.22781C19.8349 8.18424 20.1718 9.20587 20.4109 10.3036C20.65 11.4013 20.7587 12.5316 20.7587 13.7163C20.7587 15.5639 20.487 17.2702 19.9436 18.857C19.4002 20.433 18.6394 21.8132 17.6503 22.9762C16.6613 24.15 15.4875 25.0629 14.1181 25.7259C12.7487 26.3889 11.238 26.7149 9.59682 26.7149H0V0.793701ZM2.74971 24.1934H8.50998C9.86854 24.1934 11.1401 23.9543 12.3031 23.487C13.466 23.0196 14.4768 22.3349 15.3245 21.4437C16.1722 20.5525 16.8352 19.4548 17.3134 18.1615C17.7916 16.8681 18.0307 15.4009 18.0307 13.7489C18.0307 11.9556 17.7916 10.4014 17.3025 9.07545C16.8243 7.76037 16.1505 6.67352 15.2919 5.81492C14.4333 4.95631 13.4334 4.32594 12.2705 3.91294C11.1075 3.49994 9.85767 3.29344 8.50998 3.29344H2.74971V24.1934Z" fill="white"/>
<path d="M29.8562 15.0637H43.5286V17.5743H29.8562V24.1932H45.0285V26.7038H27.1064V15.0746H29.8562V15.0637Z" fill="white"/>
<path d="M27.1064 12.5638V0.93457H45.0285V3.44518H29.8562V10.0641H43.5286V12.5747H29.8562H27.1064V12.5638Z" fill="white"/>
<path d="M53.8404 0.728027V18.1827C53.8404 19.237 54.036 20.1825 54.4273 21.0194C54.8186 21.8563 55.3294 22.5627 55.9489 23.1496C56.5684 23.7365 57.2748 24.1821 58.0682 24.4864C58.8508 24.8016 59.655 24.9538 60.4593 24.9538C61.307 24.9538 62.1439 24.8125 62.9916 24.5299C63.8394 24.2473 64.6002 23.8234 65.274 23.2692C65.9478 22.7149 66.5021 22.0193 66.926 21.1824C67.3499 20.3455 67.5672 19.3783 67.5672 18.2805V0.728027H70.3169V18.074C70.3169 19.0739 70.1865 20.0086 69.9148 20.8564C69.6431 21.7041 69.2844 22.4758 68.8062 23.1713C68.3389 23.8669 67.7846 24.4756 67.1542 24.9972C66.5239 25.5189 65.8392 25.9645 65.111 26.3232C64.3828 26.6818 63.622 26.9536 62.8395 27.1274C62.0569 27.3122 61.2744 27.3992 60.4919 27.3992C59.7528 27.3992 59.0029 27.3122 58.2421 27.1274C57.4813 26.9427 56.764 26.6818 56.0684 26.3232C55.3729 25.9754 54.7207 25.5298 54.123 25.0081C53.5144 24.4864 52.9927 23.8778 52.5471 23.1822C52.1015 22.4866 51.7537 21.7041 51.4928 20.8455C51.232 19.976 51.1016 19.0305 51.1016 17.998V0.728027H53.8404Z" fill="white"/>
<path d="M78.8496 18.5415C78.9148 19.4654 79.1213 20.324 79.48 21.0956C79.8386 21.8673 80.3168 22.5411 80.9146 23.1063C81.5124 23.6714 82.208 24.1171 83.0231 24.4322C83.8382 24.7474 84.7186 24.9104 85.6859 24.9104C86.5553 24.9104 87.3813 24.8126 88.1747 24.6279C88.9681 24.4322 89.6637 24.1279 90.2723 23.7149C90.881 23.3019 91.3592 22.7585 91.7178 22.0955C92.0765 21.4325 92.2613 20.6283 92.2613 19.6936C92.2613 18.9219 92.0656 18.2698 91.6744 17.7373C91.2831 17.1939 90.7723 16.7374 90.131 16.3461C89.4898 15.9549 88.7725 15.6179 87.9574 15.3354C87.1422 15.0528 86.3271 14.7811 85.5011 14.542C84.8055 14.3463 84.1099 14.129 83.4144 13.8899C82.7188 13.6508 82.0449 13.3899 81.3928 13.0856C80.7407 12.7921 80.1321 12.4444 79.5778 12.064C79.0126 11.6836 78.5236 11.2271 78.1106 10.7054C77.6976 10.1837 77.3715 9.59683 77.1215 8.93385C76.8716 8.26001 76.7411 7.49922 76.7411 6.62974C76.7411 5.55377 76.9476 4.59735 77.3715 3.78221C77.7954 2.95621 78.3823 2.2715 79.1431 1.70634C79.9038 1.15205 80.8168 0.728185 81.871 0.434737C82.9253 0.14129 84.0882 0 85.3489 0C86.4792 0 87.4683 0.108684 88.3378 0.336921C89.2072 0.565158 89.9572 0.858606 90.6093 1.24987C91.2505 1.63026 91.7939 2.08674 92.2395 2.59756C92.6851 3.10837 93.0546 3.65179 93.3372 4.22782C93.6198 4.79298 93.8372 5.39074 93.9676 5.98851C94.098 6.59714 94.1958 7.17317 94.2284 7.73832H91.4026C91.3266 6.86885 91.1201 6.10806 90.7831 5.45595C90.4462 4.80385 90.0006 4.24956 89.4681 3.80395C88.9246 3.35835 88.3051 3.02142 87.5987 2.80406C86.8922 2.57582 86.1423 2.46713 85.3489 2.46713C84.6207 2.46713 83.9034 2.54321 83.2078 2.69537C82.5123 2.84753 81.8819 3.08663 81.3276 3.41269C80.7733 3.73874 80.3277 4.17348 79.9908 4.70603C79.6647 5.21685 79.4908 5.85809 79.4908 6.62974C79.4908 7.42314 79.6865 8.09698 80.0669 8.6404C80.4473 9.19469 80.969 9.66204 81.6102 10.0642C82.2514 10.4663 82.9905 10.8032 83.8165 11.0858C84.6425 11.3684 85.4902 11.651 86.3706 11.9227C87.0661 12.1292 87.7617 12.3574 88.4573 12.5965C89.1529 12.8356 89.8267 13.0965 90.468 13.3899C91.1092 13.6834 91.707 14.0203 92.2613 14.4007C92.8155 14.7811 93.2938 15.2158 93.6959 15.7158C94.1089 16.2157 94.4241 16.7917 94.6523 17.4438C94.8805 18.0959 95.0001 18.8459 95.0001 19.6827C95.0001 20.9435 94.7719 22.052 94.3045 23.0193C93.8372 23.9758 93.1959 24.78 92.3591 25.4213C91.5331 26.0625 90.544 26.5516 89.4029 26.8776C88.2617 27.2037 87.0227 27.3667 85.6641 27.3667C84.4469 27.3667 83.2731 27.1602 82.121 26.7472C80.969 26.3342 79.9473 25.7473 79.0452 24.9865C78.1432 24.2257 77.4258 23.3019 76.8716 22.2151C76.3173 21.1282 76.0238 19.9001 75.9912 18.5415H78.8496Z" fill="white"/>
</svg>
