<svg width="26" height="22" viewBox="0 0 26 22" fill="none" xmlns="http://www.w3.org/2000/svg">
<path d="M25.022 4.37423H22.541V3.05399C22.5403 2.50944 22.3237 1.98737 21.9387 1.60232C21.5536 1.21726 21.0316 1.00065 20.487 1H6.12873C5.61704 1.00083 5.12404 1.1924 4.74604 1.53727C4.36804 1.88215 4.13219 2.35556 4.08456 2.86503C4.08164 2.89195 4.08164 2.9191 4.08456 2.94601V9.30184C4.08456 9.39947 4.12334 9.49309 4.19237 9.56213C4.26141 9.63116 4.35503 9.66994 4.45266 9.66994C4.55028 9.66994 4.64391 9.63116 4.71294 9.56213C4.78198 9.49309 4.82076 9.39947 4.82076 9.30184V4.63926C5.18816 4.95356 5.65507 5.12745 6.13855 5.13006H24.6539V19.6503C24.6539 19.813 24.5892 19.9691 24.4742 20.0841C24.3591 20.1992 24.2031 20.2638 24.0404 20.2638H5.41708C5.25437 20.2638 5.09832 20.1992 4.98327 20.0841C4.86822 19.9691 4.80358 19.813 4.80358 19.6503V16.1436C4.80358 16.0459 4.7648 15.9523 4.69577 15.8833C4.62673 15.8142 4.53311 15.7755 4.43548 15.7755C4.33786 15.7755 4.24423 15.8142 4.1752 15.8833C4.10616 15.9523 4.06738 16.0459 4.06738 16.1436V19.6503C4.06803 20.0081 4.21044 20.351 4.46342 20.604C4.71639 20.8569 5.05931 20.9994 5.41708 21H24.0404C24.3981 20.9994 24.7411 20.8569 24.994 20.604C25.247 20.351 25.3894 20.0081 25.3901 19.6503V4.74233C25.3901 4.64471 25.3513 4.55108 25.2823 4.48205C25.2132 4.41301 25.1196 4.37423 25.022 4.37423ZM21.8023 4.37423H6.12873C5.77891 4.37423 5.44341 4.23527 5.19605 3.9879C4.94868 3.74054 4.80971 3.40504 4.80971 3.05521C4.80971 2.70539 4.94868 2.36989 5.19605 2.12253C5.44341 1.87516 5.77891 1.7362 6.12873 1.7362H20.4846C20.8339 1.73684 21.1687 1.87589 21.4157 2.12288C21.6627 2.36988 21.8017 2.70469 21.8023 3.05399V4.37423Z" fill="white" stroke="white" stroke-width="0.5"/>
<path d="M8.01104 15.8834C7.94602 15.9532 7.91062 16.0455 7.91231 16.1409C7.91399 16.2362 7.95262 16.3272 8.02006 16.3947C8.0875 16.4621 8.17849 16.5007 8.27385 16.5024C8.36922 16.5041 8.46151 16.4687 8.53129 16.4037L11.9497 12.9828C11.9833 12.9491 12.01 12.909 12.0282 12.865C12.0453 12.8229 12.0544 12.778 12.0552 12.7325C12.0544 12.6871 12.0453 12.6422 12.0282 12.6C12.01 12.556 11.9833 12.516 11.9497 12.4822L8.53129 9.03928C8.49759 9.00311 8.45695 8.9741 8.4118 8.95398C8.36664 8.93387 8.3179 8.92305 8.26848 8.92218C8.21905 8.9213 8.16996 8.9304 8.12412 8.94891C8.07829 8.96742 8.03665 8.99498 8.0017 9.02993C7.96674 9.06489 7.93919 9.10652 7.92068 9.15236C7.90216 9.19819 7.89307 9.24729 7.89394 9.29671C7.89481 9.34614 7.90563 9.39488 7.92575 9.44003C7.94587 9.48518 7.97488 9.52582 8.01104 9.55952L10.8012 12.3546H1.3681C1.27047 12.3546 1.17685 12.3934 1.10781 12.4624C1.03878 12.5315 1 12.6251 1 12.7227C1 12.8203 1.03878 12.914 1.10781 12.983C1.17685 13.052 1.27047 13.0908 1.3681 13.0908H10.8012L8.01104 15.8834Z" fill="white" stroke="white" stroke-width="0.5"/>
</svg>
