<svg width="12" height="18" viewBox="0 0 12 18" fill="none" xmlns="http://www.w3.org/2000/svg">
<path d="M6.90774 13.5049L10.0725 9.57941C10.6572 8.85096 11.703 9.3366 11.703 10.3483V10.3564C11.703 10.6478 11.6067 10.9311 11.4278 11.1415L6.63943 16.7668C6.26792 17.2039 5.66938 17.2039 5.30475 16.7668L0.516403 11.1334C0.337528 10.923 0.241211 10.6397 0.241211 10.3483C0.241211 9.34469 1.28694 8.85096 1.87172 9.58751L5.02956 13.5049L5.00204 1.21559C5.00204 0.600454 5.42858 0.0986328 5.95145 0.0986328H5.98585C6.50871 0.0986328 6.92838 0.600454 6.92838 1.21559L6.90774 13.5049Z" fill="white"/>
</svg>
