<svg width="23" height="20" viewBox="0 0 23 20" fill="none" xmlns="http://www.w3.org/2000/svg">
<path d="M22.383 4.12117H20.0881V2.89994C20.0875 2.39623 19.8871 1.91332 19.531 1.55714C19.1748 1.20097 18.6919 1.0006 18.1882 1H4.90675C4.43344 1.00077 3.97741 1.17797 3.62776 1.49698C3.27811 1.81599 3.05994 2.2539 3.01589 2.72515C3.01319 2.75005 3.01319 2.77517 3.01589 2.80006V5.6792C3.01589 5.76951 3.05176 5.85611 3.11562 5.91997C3.17947 5.98382 3.26608 6.01969 3.35638 6.01969C3.44668 6.01969 3.53329 5.98382 3.59714 5.91997C3.661 5.85611 3.69687 5.76951 3.69687 5.6792V4.36632C4.03672 4.65704 4.46861 4.81789 4.91583 4.82031H22.0425V18.2515C22.0425 18.402 21.9827 18.5464 21.8763 18.6528C21.7699 18.7592 21.6255 18.819 21.475 18.819H4.24847C4.09796 18.819 3.95362 18.7592 3.84719 18.6528C3.74077 18.5464 3.68098 18.402 3.68098 18.2515V18.0078C3.68098 17.9175 3.64511 17.8309 3.58125 17.767C3.5174 17.7032 3.43079 17.6673 3.34049 17.6673C3.25019 17.6673 3.16358 17.7032 3.09973 17.767C3.03587 17.8309 3 17.9175 3 18.0078V18.2515C3.0006 18.5825 3.13233 18.8997 3.36633 19.1337C3.60033 19.3677 3.91754 19.4994 4.24847 19.5H21.475C21.806 19.4994 22.1232 19.3677 22.3572 19.1337C22.5912 18.8997 22.7229 18.5825 22.7235 18.2515V4.46166C22.7235 4.37135 22.6876 4.28475 22.6238 4.22089C22.5599 4.15704 22.4733 4.12117 22.383 4.12117ZM19.4048 4.12117H4.90675C4.58316 4.12117 4.27282 3.99262 4.04401 3.76381C3.8152 3.535 3.68666 3.22466 3.68666 2.90107C3.68666 2.57748 3.8152 2.26715 4.04401 2.03834C4.27282 1.80953 4.58316 1.68098 4.90675 1.68098H18.1859C18.509 1.68158 18.8187 1.8102 19.0472 2.03867C19.2756 2.26714 19.4042 2.57684 19.4048 2.89994V4.12117Z" fill="white" stroke="white" stroke-width="0.5"/>
<path d="M5.6 8C5.6 7.66863 5.33137 7.4 5 7.4C4.66863 7.4 4.4 7.66863 4.4 8H5.6ZM4.4 16C4.4 16.3314 4.66863 16.6 5 16.6C5.33137 16.6 5.6 16.3314 5.6 16H4.4ZM4.4 8V16H5.6V8H4.4Z" fill="white"/>
<path d="M9 12.6C9.33137 12.6 9.6 12.3314 9.6 12C9.6 11.6686 9.33137 11.4 9 11.4L9 12.6ZM1 11.4C0.668629 11.4 0.4 11.6686 0.4 12C0.4 12.3314 0.668629 12.6 1 12.6L1 11.4ZM9 11.4L1 11.4L1 12.6L9 12.6L9 11.4Z" fill="white"/>
</svg>
